<?xml version="1.0" encoding="UTF-8" standalone="no"?>
<!DOCTYPE svg PUBLIC "-//W3C//DTD SVG 1.1//EN" "http://www.w3.org/Graphics/SVG/1.1/DTD/svg11.dtd">
<svg width="100%" height="100%" viewBox="0 0 2224 1668" version="1.1" xmlns="http://www.w3.org/2000/svg" xmlns:xlink="http://www.w3.org/1999/xlink" xml:space="preserve" xmlns:serif="http://www.serif.com/" style="fill-rule:evenodd;clip-rule:evenodd;stroke-linejoin:round;stroke-miterlimit:2;">
    <path d="M953.692,1127.29C952.436,1127.3 949.779,1127.31 949.354,1127.29C935.59,1126.41 913.3,1129.18 899.972,1130.2C897.067,1130.42 894.888,1132.96 895.11,1135.87C895.332,1138.78 897.872,1140.95 900.777,1140.73C913.709,1139.74 935.331,1136.98 948.686,1137.83C949.346,1137.87 954.025,1137.85 954.574,1137.84C957.537,1137.78 964.94,1127.28 954.009,1127.28C953.902,1127.28 953.797,1127.28 953.692,1127.29ZM917.266,1105.5C920.345,1129.07 925.952,1173.92 930.76,1194.18C931.432,1197.02 934.28,1198.78 937.116,1198.1C939.951,1197.43 941.707,1194.58 941.035,1191.75C936.285,1171.72 930.779,1127.42 927.737,1104.13C927.359,1101.25 924.707,1099.21 921.817,1099.58C918.928,1099.96 916.888,1102.61 917.266,1105.5ZM899.797,1162.67C900.069,1168.91 899.837,1175.2 899.837,1181.45C899.837,1184.36 902.203,1186.73 905.117,1186.73C908.031,1186.73 910.397,1184.36 910.397,1181.45C910.397,1175.05 910.626,1168.6 910.347,1162.21C910.219,1159.3 907.753,1157.04 904.841,1157.16C901.93,1157.29 899.669,1159.76 899.797,1162.67ZM955.222,1153.1C955.104,1159.95 959.299,1176.27 959.92,1177.57C961.176,1180.2 964.33,1181.31 966.96,1180.06C969.59,1178.8 970.706,1175.65 969.45,1173.02C968.949,1171.97 965.685,1158.8 965.78,1153.29C965.83,1150.37 963.505,1147.97 960.591,1147.92C957.678,1147.87 955.272,1150.19 955.222,1153.1ZM995.869,1183.1L995.863,1183.03C995.564,1178.8 994.657,1151.72 994.51,1147.29C994.912,1146.05 994.853,1144.65 994.24,1143.38C992.945,1140.7 990.844,1140.38 989.754,1140.31C988.784,1140.24 984.582,1140.58 984.004,1145.43C983.507,1149.59 984.985,1178.92 985.329,1183.77C986.094,1194.56 995.941,1188.29 995.941,1183.97C995.941,1183.67 995.917,1183.38 995.869,1183.1ZM985.802,1181.9C985.596,1182.33 985.381,1183.01 985.381,1183.97C985.381,1183.24 985.531,1182.54 985.802,1181.9ZM987.391,1150.52C986.266,1150.04 985.304,1149.16 984.731,1147.97C985.46,1149.48 986.471,1150.19 987.391,1150.52ZM1037.04,1182.75C1036.28,1183.03 1035.43,1183.33 1035.15,1183.42C1032.59,1184.28 1027.67,1185.33 1023.22,1184.74C1020.22,1184.34 1017.34,1183.08 1016.88,1179.31C1016.76,1178.26 1014.45,1121.11 1014.09,1113.98C1013.95,1111.07 1011.47,1108.82 1008.56,1108.96C1005.65,1109.11 1003.4,1111.59 1003.55,1114.5C1003.9,1121.71 1006.27,1179.5 1006.4,1180.57C1007.55,1190.18 1014.18,1194.19 1021.83,1195.2C1028.04,1196.03 1034.91,1194.64 1038.49,1193.44C1039.46,1193.12 1043.15,1191.79 1044.11,1191.14C1045.11,1190.47 1045.64,1189.71 1045.94,1189.18C1047.22,1186.88 1046.81,1184.87 1045.38,1183.15C1044.92,1182.6 1043.73,1181.16 1040.82,1181.16C1039.34,1181.16 1038,1181.77 1037.04,1182.75ZM1040.52,1191.71L1040.52,1191.71L1040.51,1191.71L1040.52,1191.71ZM1053.44,1118.95L1053.65,1118.93C1058.96,1118.32 1085.69,1116.7 1092.05,1117.06C1094.95,1117.23 1097.45,1115 1097.62,1112.09C1097.79,1109.18 1095.56,1106.69 1092.65,1106.52C1086,1106.14 1058.02,1107.8 1052.45,1108.44C1050.6,1108.65 1049.58,1109.2 1049.36,1109.33C1047.42,1110.52 1046.99,1112.12 1046.86,1113.22C1046.52,1116.11 1048.58,1118.74 1051.47,1119.09C1052.15,1119.17 1052.82,1119.12 1053.44,1118.95ZM1056.02,1117.39L1056.01,1117.4L1056.01,1117.4L1056.02,1117.39ZM1056.21,1117.17L1056.15,1117.24L1056.17,1117.22L1056.21,1117.17ZM1057.25,1115.05C1057.07,1115.8 1056.74,1116.49 1056.28,1117.08C1056.81,1116.4 1057.1,1115.71 1057.25,1115.05ZM1057.3,1114.78L1057.27,1114.95L1057.29,1114.83L1057.3,1114.78ZM1096.71,1141.86L1096.36,1141.87C1089.06,1142.14 1049.13,1142.02 1041.72,1142.73C1038.82,1143.01 1036.69,1145.59 1036.96,1148.49C1037.24,1151.39 1039.82,1153.52 1042.72,1153.24C1050.05,1152.54 1089.53,1152.69 1096.75,1152.43C1098.43,1152.36 1099.41,1152.06 1099.61,1151.98C1101.75,1151.14 1102.4,1149.62 1102.69,1148.76C1103.1,1147.58 1103.09,1146.4 1102.64,1145.21C1102.34,1144.39 1101.73,1143.16 1100.05,1142.32C1098.98,1141.78 1097.81,1141.65 1096.71,1141.86ZM1092.98,1149.44C1093.32,1150.15 1093.91,1150.99 1095.08,1151.63C1094.15,1151.11 1093.44,1150.33 1092.98,1149.44ZM1092.43,1147.56L1092.44,1147.58L1092.43,1147.55L1092.43,1147.56ZM1092.42,1147.34L1092.42,1147.37L1092.41,1147.32L1092.42,1147.34ZM1092.41,1147.11L1092.41,1147.12L1092.41,1147.11ZM1071.25,1176.23C1071.09,1175.88 1070.87,1175.36 1070.74,1174.94C1070.2,1173.13 1069.83,1170.79 1069.55,1168.09C1068.1,1153.86 1069.53,1130.57 1069.94,1115.96C1070.02,1113.05 1067.72,1110.61 1064.81,1110.53C1061.9,1110.45 1059.46,1112.75 1059.38,1115.66C1058.96,1130.65 1057.56,1154.55 1059.05,1169.16C1059.57,1174.26 1060.5,1178.36 1061.76,1180.94C1062.68,1182.84 1063.85,1184.17 1065.06,1185.02C1066.8,1186.23 1070.8,1187.15 1075.85,1187.2C1084.34,1187.27 1096.59,1185.73 1099.94,1185.73C1102.85,1185.73 1105.22,1183.36 1105.22,1180.45C1105.22,1177.53 1102.85,1175.17 1099.94,1175.17C1096.6,1175.17 1084.39,1176.71 1075.94,1176.64C1074.29,1176.62 1072.17,1176.36 1071.25,1176.23ZM1133.38,1116.03C1133.01,1115.97 1132.61,1115.93 1132.17,1115.92L1132.18,1115.89L1131.68,1115.93C1131.52,1115.93 1131.35,1115.94 1131.17,1115.95C1128.66,1116.14 1123.04,1116.58 1121.85,1116.68C1118.4,1117 1112.56,1127.15 1122.89,1127.17L1122.88,1127.19L1123.18,1127.16C1123.5,1127.16 1123.84,1127.15 1124.2,1127.12C1135.6,1126.32 1148.72,1126.12 1154.93,1125.74C1157.84,1125.56 1160.06,1123.05 1159.88,1120.14C1159.7,1117.24 1157.2,1115.02 1154.29,1115.2C1149.82,1115.47 1141.79,1115.65 1133.38,1116.03ZM1127.86,1187.95C1135.62,1188.68 1143.29,1184.34 1150.02,1176.62C1158.53,1166.86 1165.8,1151.66 1170.68,1138.59C1171.7,1135.86 1170.31,1132.82 1167.58,1131.8C1164.85,1130.78 1161.81,1132.17 1160.79,1134.9C1156.33,1146.83 1149.83,1160.77 1142.06,1169.69C1137.92,1174.43 1133.62,1177.89 1128.85,1177.44C1125.94,1177.17 1123.37,1179.3 1123.1,1182.2C1122.82,1185.1 1124.96,1187.68 1127.86,1187.95Z" style="fill-rule:nonzero;"/>
    <g transform="matrix(1,0,0,1,6.52831,5.74254)">
        <path d="M1207.01,889.794C1200.99,894.216 1166.21,919.43 1135.88,934.663C1102.25,951.561 1065.24,966.65 1042.38,967.542C952.506,971.048 860.365,927.826 822.324,890.13C815.272,883.142 803.873,883.194 796.885,890.246C789.897,897.298 789.949,908.696 797.001,915.684C839.717,958.012 942.865,1007.43 1043.79,1003.49C1090.17,1001.68 1188.64,951.389 1223.65,923.372C1232.05,916.656 1237.35,910.478 1239.6,906.217C1243.1,899.605 1242.89,893.774 1241.5,889.298C1238.56,879.817 1228.47,874.51 1218.99,877.454C1212.94,879.332 1208.59,884.115 1207.01,889.794Z"/>
        <g>
            <path d="M807.368,587.04L808.251,587.007C822.191,586.585 894.268,586.216 920.985,587.047C930.908,587.356 939.215,579.551 939.524,569.628C939.832,559.705 932.027,551.398 922.104,551.089C894.864,550.241 821.376,550.618 807.164,551.048C802.686,551.183 800.135,551.935 799.724,552.07C792.745,554.368 790.301,558.961 789.178,561.254C786.348,567.032 786.461,572.821 790.011,578.592C793.783,584.726 800.652,587.801 807.368,587.04Z"/>
            <path d="M1078.77,581.089C1109.88,583.329 1165.56,582.796 1195.89,582.987C1205.81,583.05 1213.92,575.041 1213.99,565.113C1214.05,555.186 1206.04,547.075 1196.11,547.013C1166.4,546.825 1111.84,547.401 1081.35,545.207C1071.45,544.494 1062.83,551.955 1062.12,561.857C1061.4,571.759 1068.86,580.377 1078.77,581.089Z"/>
            <path d="M790.566,666.339C845.518,666.413 892.825,665.732 953.63,666.984C963.555,667.188 971.78,659.296 971.984,649.37C972.188,639.445 964.296,631.22 954.37,631.016C893.307,629.759 845.799,630.438 790.614,630.363C780.687,630.35 772.616,638.399 772.602,648.327C772.589,658.255 780.638,666.326 790.566,666.339Z"/>
            <g>
                <path d="M799.543,661C798.125,688.638 800.01,720.181 810.341,744.363C822.545,772.929 845.176,792.816 885.406,790.43C908.357,789.068 926.519,775.849 938.897,755.157C954.412,729.221 960.417,690.651 955.836,655.665C954.547,645.821 945.508,638.876 935.665,640.164C925.821,641.453 918.876,650.492 920.164,660.335C923.674,687.137 919.909,716.821 908.024,736.689C902.131,746.538 894.201,753.869 883.276,754.517C872.964,755.129 864.735,753.359 858.324,749.303C848.253,742.931 842.936,731.584 839.596,718.887C834.973,701.319 834.538,681.033 835.471,662.843C835.98,652.928 828.344,644.466 818.429,643.957C808.514,643.448 800.052,651.085 799.543,661Z"/>
                <path d="M1071.16,658.416C1068.58,684.416 1066.49,713.155 1072.53,736.885C1079.74,765.185 1097.04,787.589 1134.67,794.677C1165.04,800.397 1188.42,785.387 1202.85,760.705C1221.73,728.384 1223.17,678.764 1205.35,649.618C1200.17,641.147 1189.09,638.475 1180.62,643.653C1172.15,648.831 1169.48,659.912 1174.65,668.382C1186.56,687.853 1184.4,720.963 1171.79,742.554C1165.2,753.82 1155.19,761.934 1141.33,759.323C1116.11,754.572 1107.74,737.077 1105.37,716.752C1103.33,699.255 1105.19,679.856 1106.96,661.965C1107.94,652.086 1100.71,643.27 1090.83,642.291C1080.95,641.311 1072.14,648.537 1071.16,658.416Z"/>
            </g>
            <path d="M1060.6,665.395C1077.6,665.994 1193.12,666.988 1223,666.988C1232.93,666.988 1240.99,658.928 1240.99,649C1240.99,639.072 1232.93,631.012 1223,631.012C1193.35,631.012 1078.73,630.036 1061.87,629.442C1051.95,629.092 1043.61,636.864 1043.26,646.785C1042.91,656.707 1050.68,665.046 1060.6,665.395Z"/>
            <path d="M1018.55,785.323L1018.49,785.323L1018.49,785.325L1017.53,785.348C1009.61,785.771 1003.13,791.272 1001.14,798.563C994.741,812.725 958.973,880.141 954.302,889.204C952.395,892.55 951.405,896.619 952.1,900.905C952.779,905.087 954.916,908.567 957.679,911.125C958.147,911.593 958.954,912.337 960.16,913.11C961.263,913.86 962.322,914.389 963.311,914.77C964.475,915.261 965.654,915.61 966.808,915.812C967.77,915.98 968.762,916.081 969.781,916.084C975.591,916.528 997.682,917.173 1019.99,917.417C1044.22,917.681 1068.69,917.233 1074.51,916.025C1080.23,914.84 1083.3,912.142 1084.72,910.719C1087.14,908.299 1089.46,904.809 1090,899.575C1090.18,897.88 1090.21,895.336 1089.36,892.096C1088.71,889.667 1086.78,884.928 1083.62,878.785C1071.86,855.894 1041.06,805.244 1034.79,795.345L1034.22,794.5C1030.88,788.04 1025.5,785.216 1018.55,785.323ZM958.682,911.997C959.182,912.414 959.675,912.784 960.16,913.11C960.578,913.38 961.044,913.654 961.562,913.917C962.138,914.237 962.722,914.521 963.311,914.77C964.312,915.157 965.239,915.392 966.068,915.542C964.266,915.129 962.774,914.543 961.562,913.917L960.874,913.534C960.495,913.288 960.117,913.041 959.738,912.794L958.682,911.997ZM958.072,911.472L958.349,911.711L958.02,911.423L958.072,911.472ZM954.424,888.991L954.39,889.054L954.612,888.677L954.424,888.991ZM958.351,884.206C957.175,885.175 955.956,886.482 954.837,888.3C955.839,886.734 957.039,885.349 958.351,884.206ZM1016.62,847.664C1013.92,852.854 1011.22,858.043 1008.52,863.233L999.326,880.765C1013.1,880.865 1029.6,880.88 1042.85,880.869L1032.41,862.624C1029.51,857.592 1026.62,852.559 1023.72,847.527L1016.62,847.664ZM1002.54,811.632C1002.94,812.395 1003.39,813.125 1003.89,813.818L1004.65,815.005L1004.89,815.388C1004.02,814.298 1003.23,813.048 1002.54,811.632Z"/>
        </g>
        <path d="M1254.82,921.515L1254.76,921.438C1243.83,908.606 1230.71,903.531 1218.64,906.549C1198.23,911.651 1186.92,933.423 1188.53,960.669C1189.63,979.336 1196.33,1000.07 1205.99,1014.44C1208.94,1018.84 1212.21,1022.67 1215.69,1025.86C1211.87,1034.45 1210.01,1044.69 1210.01,1053C1210.01,1085.55 1230.73,1108.37 1261.21,1120.86C1300.69,1137.03 1356.92,1134.64 1391.32,1117.44C1404.2,1111 1406.22,1101.92 1406.03,1095.83C1405.84,1089.72 1402.62,1081.8 1392.92,1076.19C1390.16,1074.59 1385.92,1072.96 1380.95,1071.38C1390.7,1066.69 1399.07,1062.42 1405.1,1058.39C1417.04,1050.42 1422.2,1041.21 1422.91,1033.69C1424.87,1012.83 1419.02,1000.44 1411.49,993.149C1407.06,988.861 1401.65,985.94 1395.51,984.375C1404.27,970.234 1411.35,954.908 1414.01,941.701C1417.04,926.661 1414.57,913.835 1407.85,905.173C1400.93,896.251 1388.68,889.529 1367.76,892.152C1365.5,892.435 1362.23,893.233 1358.63,895.827C1356.53,897.338 1352.66,901.178 1348.12,906.947C1343.79,912.461 1338.19,920.213 1332.38,928.524C1332.04,926.567 1331.65,924.662 1331.21,922.827C1326.98,905.076 1317.02,893.464 1305.36,890.549C1294.18,887.754 1285.12,889.074 1277.73,892.521C1267.34,897.371 1259.66,907.122 1255.26,920.152L1254.82,921.515ZM1293.91,924.959C1293.57,924.957 1293.25,925.006 1292.95,925.119C1291.4,925.702 1291,927.557 1290.25,929.281C1287.79,934.952 1286.74,942.115 1286.15,949.282C1284.93,964.05 1285.99,978.972 1285.99,986C1285.99,993.538 1282.29,997.26 1280.55,998.962C1277.51,1001.93 1274.01,1003.47 1270.21,1003.94C1269.07,1004.08 1256.21,1005.17 1250.7,991.607C1248.61,986.463 1241.3,965.34 1231.49,950.361C1230,948.088 1227.54,945.324 1225.79,943.457C1225.6,944.231 1225.51,945.129 1225.3,945.974C1223.64,952.612 1224.18,960.931 1225.88,969.178C1227.71,978.04 1230.99,986.853 1235.37,993.655C1237.7,997.264 1239.6,1000.87 1242.71,1001.38C1252.51,1002.97 1259.18,1012.21 1257.59,1022.01C1257.05,1025.35 1255.63,1028.32 1253.59,1030.72C1252.9,1034.02 1251.28,1037.16 1248.72,1039.72C1247.78,1040.66 1247.54,1042.23 1247.14,1043.72C1246.31,1046.86 1245.99,1050.2 1245.99,1053C1245.99,1070.24 1258.7,1080.95 1274.85,1087.56C1290.73,1094.07 1310.12,1096.77 1328.81,1095.98C1325.07,1095.23 1322.55,1094.59 1321.76,1094.3C1319.05,1093.29 1317.38,1092.03 1316.41,1091.23C1310.43,1086.29 1309.66,1080.57 1309.88,1076.36C1310.14,1071.49 1311.86,1065.4 1319.48,1061.38C1342.47,1049.27 1365.04,1039.96 1379.66,1031.77C1382.27,1030.31 1385.41,1028.1 1387.21,1026.79C1387.15,1023.29 1386.61,1020.2 1386.42,1019.21C1385.89,1019.12 1385.01,1018.98 1384.42,1018.98C1381.76,1018.95 1378.9,1019.48 1375.98,1020.23C1369.11,1022 1362.06,1025.08 1356.06,1028.08C1348.92,1031.87 1345.2,1030.31 1345.11,1030.3C1335.03,1029.12 1331.28,1022.82 1329.77,1016.86C1329.53,1015.92 1326.2,1004.63 1337.41,997.348C1337.58,997.237 1338.38,996.752 1339.22,996.296C1350.75,989.751 1367.25,966.261 1375.32,945.749C1377.68,939.74 1378.71,930.994 1379.01,927.885L1377.99,927.802L1331.07,994.828C1326.55,1001.75 1317.9,1004.7 1310.1,1001.99C1302.3,999.283 1297.34,991.605 1298.09,983.377C1298.09,983.377 1300.27,959.701 1297.72,939.696C1297.08,934.668 1294.85,927.744 1293.91,924.959Z"/>
        <path d="M729.875,912.773C728.038,911.463 726.1,910.362 724.073,909.481C717.028,906.421 708.543,905.525 698.312,908.935C685.436,913.227 677.219,924.454 674.436,940.066C674.044,942.261 673.771,944.558 673.6,946.917C660.418,940.813 646.81,941.751 635.281,953.281C619.419,969.143 620.546,988.611 630.952,1007.19C634.034,1012.69 638.504,1018.5 643.28,1023.97C622.193,1033.31 616.017,1051.58 619.607,1065.32C621.928,1074.19 628.321,1083.49 639.792,1090.46C651.482,1097.56 669.465,1102.67 693.346,1101.23C695.171,1103.06 698.314,1106.18 700.533,1108.3C710.545,1117.82 723.605,1126.13 743.957,1122.74C752.466,1121.33 759.575,1117.99 766.216,1113.97C771.825,1110.57 776.709,1106.11 783.363,1104.45C785.821,1103.84 793.856,1102.08 794.621,1101.78C795.69,1101.36 796.642,1100.89 797.486,1100.38C807.368,1097.2 816.486,1089.34 823.349,1077.35C831.166,1063.7 836.423,1044.07 837.985,1023.98C839.544,1003.9 837.415,983.468 831.563,968.246C826.388,954.782 818.163,944.971 808.044,939.911C800.959,936.368 793.316,936.171 786.152,939.618C780.961,920.154 769.525,907.018 752.957,904.257C744.569,902.859 736.275,905.588 729.875,912.773ZM774.919,1097.34C776.585,1099.32 780.356,1102.99 788,1102.99C782.847,1102.99 778.196,1100.82 774.919,1097.34ZM770.512,1080.8C770.183,1082.15 770.012,1083.55 770.012,1085C770.012,1088.19 770.847,1091.2 772.314,1093.8C769.876,1089.78 769.204,1085.45 770.512,1080.8ZM752.79,955.672L752.769,955.857C752.108,962.514 751.82,969.363 751.731,975.349C752.038,983.128 751.988,989.841 751.988,994C751.988,994.816 751.941,995.362 751.916,995.645C750.471,1011.87 735.512,1012.11 733.332,1012.03C730.697,1011.93 719.73,1011.44 716.523,998.327C716.502,998.239 716.349,997.587 716.208,996.416C716.359,1003.99 711.339,1008.25 709.995,1009.45C705.955,1013.06 698.397,1017.75 688.191,1011.12C687.861,1010.9 685.233,1009.3 682.404,1005.13C680.374,1002.14 673.675,991.976 665.483,984.545C663.939,983.144 661.366,981.479 659.666,980.444C659.281,981.718 659.571,983.1 660.006,984.451C661.258,988.332 663.695,992.156 666.436,995.827C675.492,1007.95 688.272,1018.1 691.944,1021.39C698.899,1027.63 699.005,1034.19 699.043,1035.39C699.263,1042.28 696.336,1047.15 691.565,1050.59C689.131,1052.34 685.538,1054.2 680.209,1053.97C670.361,1053.54 660.54,1056.46 656.292,1057.94C657.268,1058.8 658.5,1059.77 659.68,1060.4C667.46,1064.55 679.196,1066.46 694.383,1065.09C702.523,1064.35 710.598,1067.72 718.328,1075.19C720.575,1077.36 722.93,1079.98 725.62,1082.5C728.553,1085.25 732.148,1088.24 738.043,1087.26C744.62,1086.16 749.244,1082.13 754.281,1078.94C760.553,1074.96 767.052,1071.45 774.637,1069.55C775.955,1069.22 780.179,1068.34 782.211,1067.92C783.535,1067.15 784.982,1066.54 786.531,1066.12C787.925,1065.74 788.803,1064.33 789.879,1062.91C791.595,1060.66 793.087,1057.92 794.432,1054.88C798.599,1045.45 801.168,1033.41 802.117,1021.19C803.068,1008.96 802.398,996.518 799.635,986.273C799.117,984.355 798.603,982.493 798.014,980.768C796.581,983.797 795.151,987.068 794.233,989.803C789.478,1003.96 786.656,1018.44 786.656,1018.44C784.776,1028.09 775.493,1034.44 765.814,1032.7C756.136,1030.96 749.65,1021.77 751.253,1012.07C751.253,1012.07 756.067,983.32 753.268,959.219C753.129,958.022 752.972,956.837 752.79,955.672ZM680.66,1000.84C680.803,1001.32 680.97,1001.82 681.157,1002.32C681.019,1001.95 680.851,1001.45 680.66,1000.84ZM710.351,944.323C710.225,944.707 710.115,945.086 710.044,945.41C709.562,947.626 709.343,950.052 709.266,952.565C708.793,968.03 713.578,986.312 714.843,989.684C715.393,991.152 715.759,992.537 715.972,993.839L715.939,993.232C715.81,990.141 715.66,983.206 715.843,974.685C715.557,967.857 714.891,960.379 713.424,953.558C712.911,951.168 712.295,948.875 711.52,946.773C711.247,946.034 710.799,945.132 710.351,944.323Z"/>
        <g>
            <g transform="matrix(1,0,0,1,-10.2761,0.804016)">
                <path d="M705.364,1100.99C687.07,1169.5 750.379,1248.64 827.147,1219.16C852.889,1209.28 868.479,1185.3 871.814,1157.97C876.546,1119.19 856.317,1074.45 809.013,1060.72C799.479,1057.96 789.492,1063.45 786.725,1072.99C783.958,1082.52 789.452,1092.51 798.987,1095.28C827.241,1103.47 838.929,1130.45 836.103,1153.61C834.399,1167.58 827.409,1180.53 814.252,1185.58C766.447,1203.93 728.73,1152.93 740.122,1110.27C742.683,1100.67 736.975,1090.81 727.383,1088.25C717.792,1085.69 707.925,1091.39 705.364,1100.99Z"/>
            </g>
            <g transform="matrix(1,0,0,1,15.4856,3.83923)">
                <path d="M1294.59,1141.76C1294.65,1143.82 1294.78,1152.91 1293.16,1159.57C1288.63,1178.2 1276.87,1201.74 1255.15,1206.48C1246.25,1208.42 1235.91,1206.77 1223.97,1200.87C1215,1196.44 1209.28,1191.41 1206.62,1185.37C1202.54,1176.11 1205.64,1165.72 1210.18,1155.82C1220.22,1133.91 1239.71,1114.27 1246.71,1108.09C1254.16,1101.52 1254.87,1090.15 1248.3,1082.7C1241.74,1075.26 1230.36,1074.54 1222.91,1081.11C1214.17,1088.82 1190.02,1113.47 1177.48,1140.83C1168.46,1160.51 1165.59,1181.46 1173.69,1199.87C1179.15,1212.27 1189.61,1224.03 1208.03,1233.13C1248.52,1253.12 1279.02,1241.74 1299.87,1220.58C1320.19,1199.97 1330.5,1168.49 1330.98,1147.57C1331.3,1133.79 1326.95,1123.51 1321.72,1118.28C1314.7,1111.26 1303.3,1111.26 1296.28,1118.28C1289.88,1124.68 1289.32,1134.72 1294.59,1141.76Z"/>
            </g>
            <path d="M1179.7,1043.35L1179.76,1049.51C1180.02,1087.27 1180.24,1264.58 1179.83,1299.67L1179.74,1304.3C1179.69,1304.84 1179.67,1305.38 1179.67,1305.93C1179.67,1315.85 1187.73,1323.91 1197.65,1323.91C1199.86,1323.91 1213.34,1323.49 1215.48,1308.39C1215.56,1307.86 1215.74,1304.96 1215.8,1300.09C1216.21,1264.91 1216,1087.12 1215.74,1049.26C1215.7,1044.27 1215.63,1041.33 1215.59,1040.89C1214.89,1032.21 1209.79,1028.98 1209.09,1028.4C1202.74,1023.18 1196.26,1023.03 1189.91,1026.06C1187.75,1027.09 1182.43,1029.6 1180.28,1037.65C1179.77,1039.56 1179.58,1041.48 1179.7,1043.35ZM1214.71,1048.01C1213.12,1052.78 1209.67,1056.49 1205.39,1058.53L1205.4,1058.53C1207.46,1057.55 1212.4,1055.22 1214.71,1048.01Z"/>
            <path d="M827.811,1031.64C827.875,1032.59 827.992,1034.49 828.054,1036.16C829.671,1080.39 827.347,1296.13 827.347,1310.19C827.347,1320.12 835.407,1328.18 845.334,1328.18C855.262,1328.18 863.322,1320.12 863.322,1310.19C863.322,1296.06 865.631,1079.29 864.005,1034.85C863.716,1026.94 862.57,1022.19 862.129,1021.08C860.012,1015.77 856.619,1013.37 854.414,1012.08C845.844,1007.07 834.818,1009.96 829.806,1018.53C827.401,1022.65 826.816,1027.33 827.811,1031.64Z"/>
        </g>
        <g transform="matrix(1,0,0,1,-6.52831,-5.74254)">
            <path d="M825.136,936.363C828.562,935.664 831.737,933.972 834.248,931.462C839.16,926.55 841.849,917.939 839.106,908.721C837.199,902.313 832.575,896.142 830.787,894.53C828.476,892.445 826.257,891.408 824.633,890.822C821.508,889.695 819.14,886.041 816.207,881.59C808.577,870.015 801.625,852.584 795.345,831.557C771.218,750.776 758.448,618.855 776.297,542.186C778.838,542.337 781.845,542.448 785.288,542.491C860.275,543.427 1214.4,533.743 1257.28,538.023C1258.48,540.677 1261.36,547.347 1262.68,553.177C1268.04,576.964 1269.53,613.896 1268.59,654.616C1266.91,727.472 1257.21,812.231 1245.35,857.716C1242.95,866.919 1238.65,877.181 1237.3,880.298C1230.98,884.076 1227.38,891.539 1228.87,899.182C1229.12,900.428 1229.48,901.619 1229.96,902.745C1228.42,905.39 1227.54,908.464 1227.54,911.743C1227.54,921.67 1235.6,929.73 1245.53,929.73C1268.3,929.73 1328.74,927.485 1363.63,905.819C1379.51,895.955 1395,875.198 1407.14,851.271C1424.34,817.389 1435.16,777.623 1435.17,759.98C1435.17,736.489 1434.41,659.85 1427.61,584.629C1420,500.477 1395.45,415.548 1386.92,396.585C1378.26,370.179 1342.42,312.367 1333.77,301.003C1311.99,272.384 1285.15,248.427 1243.02,218.444C1175.85,170.635 1108.11,167.553 1065.86,160.043C1024.12,152.624 987.529,151.602 956.409,156.088C893.983,165.088 865.852,175.022 820.787,203.119C781.036,227.903 730.123,278.8 699.631,332.521C694.839,340.965 673.5,393.334 656.404,449.952C648.135,477.338 625.632,600.174 622.579,694.788C621.194,737.724 624.188,775.107 633.109,796.747C644.991,825.57 665.666,869.294 690.873,894.648C720.239,924.186 762.822,940.286 792.608,941.978C805.929,942.735 817.128,940.46 825.136,936.363ZM809.03,923.223C810.543,924.088 811.877,924.466 812.423,924.663C811.299,924.257 810.166,923.778 809.03,923.223ZM1350.37,401.341C1340.06,376.21 1312.22,332.079 1305.15,322.795C1285.28,296.696 1260.58,275.098 1222.16,247.755C1160.66,203.98 1098.25,202.34 1059.56,195.463C1022.18,188.818 989.415,187.678 961.543,191.696C905.552,199.768 880.24,208.446 839.821,233.647C804.038,255.957 758.366,301.921 730.919,350.28C726.432,358.183 706.848,407.35 690.844,460.351C682.887,486.7 661.473,604.917 658.536,695.948C657.354,732.575 658.759,764.575 666.37,783.036C676.791,808.316 694.276,847.046 716.385,869.284C735.922,888.935 762.961,901 784.844,904.879C786.279,905.133 787.689,905.353 789.071,905.529C788.088,904.215 787.122,902.835 786.169,901.389C777.065,887.576 768.368,866.944 760.874,841.852C733.181,749.13 720.793,593.4 746.473,515.22C748.942,507.703 755.904,502.911 763.404,502.848C764.114,502.759 764.838,502.716 765.573,502.718C769.547,502.728 773.219,504.028 776.19,506.223C780.745,506.318 799.246,506.657 821.304,506.472C942.704,505.454 1243.26,498.42 1267,503.093C1277.19,505.099 1287.84,514.046 1294.09,532.111C1302.6,556.681 1305.76,603.2 1304.56,655.444C1302.55,742.631 1289.07,846.037 1274.32,885.796C1273.34,888.451 1272.31,890.888 1271.26,893.105C1294.42,891.769 1324.63,887.689 1344.65,875.257C1356.13,868.124 1366.28,852.294 1375.06,834.991C1389.25,807.03 1399.19,774.528 1399.19,759.968C1399.2,736.913 1398.46,661.695 1391.78,587.868C1385.16,514.665 1365.44,440.689 1356.42,416.833C1355.36,415.268 1353.58,412.246 1352.32,409.176C1351.2,406.46 1350.63,403.685 1350.37,401.341ZM783.441,519.056L783.487,519.691L783.481,519.478L783.441,519.056ZM783.161,517.124L783.068,516.716C783.225,517.362 783.342,518.055 783.416,518.797L783.318,518.01C783.265,517.715 783.213,517.42 783.161,517.124Z"/>
        </g>
    </g>
</svg>
